<svg width="16" height="16" viewBox="0 0 16 16" fill="none" xmlns="http://www.w3.org/2000/svg">
<path d="M8.00004 12.6667C8.1319 12.6667 8.26079 12.6276 8.37042 12.5543C8.48005 12.4811 8.5655 12.377 8.61596 12.2551C8.66642 12.1333 8.67962 11.9993 8.6539 11.87C8.62817 11.7406 8.56468 11.6219 8.47145 11.5286C8.37821 11.4354 8.25942 11.3719 8.1301 11.3462C8.00078 11.3204 7.86674 11.3336 7.74492 11.3841C7.6231 11.4346 7.51898 11.52 7.44573 11.6296C7.37247 11.7393 7.33337 11.8682 7.33337 12C7.33337 12.1768 7.40361 12.3464 7.52864 12.4714C7.65366 12.5964 7.82323 12.6667 8.00004 12.6667ZM11.3334 12.6667C11.4652 12.6667 11.5941 12.6276 11.7038 12.5543C11.8134 12.4811 11.8988 12.377 11.9493 12.2551C11.9998 12.1333 12.013 11.9993 11.9872 11.87C11.9615 11.7406 11.898 11.6219 11.8048 11.5286C11.7115 11.4354 11.5928 11.3719 11.4634 11.3462C11.3341 11.3204 11.2001 11.3336 11.0783 11.3841C10.9564 11.4346 10.8523 11.52 10.7791 11.6296C10.7058 11.7393 10.6667 11.8682 10.6667 12C10.6667 12.1768 10.7369 12.3464 10.862 12.4714C10.987 12.5964 11.1566 12.6667 11.3334 12.6667ZM11.3334 10C11.4652 10 11.5941 9.96092 11.7038 9.88767C11.8134 9.81441 11.8988 9.71029 11.9493 9.58848C11.9998 9.46666 12.013 9.33261 11.9872 9.20329C11.9615 9.07397 11.898 8.95518 11.8048 8.86195C11.7115 8.76871 11.5928 8.70522 11.4634 8.6795C11.3341 8.65377 11.2001 8.66698 11.0783 8.71743C10.9564 8.76789 10.8523 8.85334 10.7791 8.96297C10.7058 9.07261 10.6667 9.2015 10.6667 9.33335C10.6667 9.51016 10.7369 9.67973 10.862 9.80476C10.987 9.92978 11.1566 10 11.3334 10ZM8.00004 10C8.1319 10 8.26079 9.96092 8.37042 9.88767C8.48005 9.81441 8.5655 9.71029 8.61596 9.58848C8.66642 9.46666 8.67962 9.33261 8.6539 9.20329C8.62817 9.07397 8.56468 8.95518 8.47145 8.86195C8.37821 8.76871 8.25942 8.70522 8.1301 8.6795C8.00078 8.65377 7.86674 8.66698 7.74492 8.71743C7.6231 8.76789 7.51898 8.85334 7.44573 8.96297C7.37247 9.07261 7.33337 9.2015 7.33337 9.33335C7.33337 9.51016 7.40361 9.67973 7.52864 9.80476C7.65366 9.92978 7.82323 10 8.00004 10ZM12.6667 2.00002H12V1.33335C12 1.15654 11.9298 0.986973 11.8048 0.861949C11.6798 0.736925 11.5102 0.666687 11.3334 0.666687C11.1566 0.666687 10.987 0.736925 10.862 0.861949C10.7369 0.986973 10.6667 1.15654 10.6667 1.33335V2.00002H5.33337V1.33335C5.33337 1.15654 5.26314 0.986973 5.13811 0.861949C5.01309 0.736925 4.84352 0.666687 4.66671 0.666687C4.4899 0.666687 4.32033 0.736925 4.1953 0.861949C4.07028 0.986973 4.00004 1.15654 4.00004 1.33335V2.00002H3.33337C2.80294 2.00002 2.29423 2.21073 1.91916 2.58581C1.54409 2.96088 1.33337 3.46959 1.33337 4.00002V13.3334C1.33337 13.8638 1.54409 14.3725 1.91916 14.7476C2.29423 15.1226 2.80294 15.3334 3.33337 15.3334H12.6667C13.1971 15.3334 13.7058 15.1226 14.0809 14.7476C14.456 14.3725 14.6667 13.8638 14.6667 13.3334V4.00002C14.6667 3.46959 14.456 2.96088 14.0809 2.58581C13.7058 2.21073 13.1971 2.00002 12.6667 2.00002ZM13.3334 13.3334C13.3334 13.5102 13.2631 13.6797 13.1381 13.8048C13.0131 13.9298 12.8435 14 12.6667 14H3.33337C3.15656 14 2.98699 13.9298 2.86197 13.8048C2.73695 13.6797 2.66671 13.5102 2.66671 13.3334V7.33335H13.3334V13.3334ZM13.3334 6.00002H2.66671V4.00002C2.66671 3.82321 2.73695 3.65364 2.86197 3.52862C2.98699 3.40359 3.15656 3.33335 3.33337 3.33335H4.00004V4.00002C4.00004 4.17683 4.07028 4.3464 4.1953 4.47142C4.32033 4.59645 4.4899 4.66669 4.66671 4.66669C4.84352 4.66669 5.01309 4.59645 5.13811 4.47142C5.26314 4.3464 5.33337 4.17683 5.33337 4.00002V3.33335H10.6667V4.00002C10.6667 4.17683 10.7369 4.3464 10.862 4.47142C10.987 4.59645 11.1566 4.66669 11.3334 4.66669C11.5102 4.66669 11.6798 4.59645 11.8048 4.47142C11.9298 4.3464 12 4.17683 12 4.00002V3.33335H12.6667C12.8435 3.33335 13.0131 3.40359 13.1381 3.52862C13.2631 3.65364 13.3334 3.82321 13.3334 4.00002V6.00002ZM4.66671 10C4.79856 10 4.92745 9.96092 5.03709 9.88767C5.14672 9.81441 5.23217 9.71029 5.28263 9.58848C5.33309 9.46666 5.34629 9.33261 5.32056 9.20329C5.29484 9.07397 5.23135 8.95518 5.13811 8.86195C5.04488 8.76871 4.92609 8.70522 4.79677 8.6795C4.66745 8.65377 4.5334 8.66698 4.41159 8.71743C4.28977 8.76789 4.18565 8.85334 4.11239 8.96297C4.03914 9.07261 4.00004 9.2015 4.00004 9.33335C4.00004 9.51016 4.07028 9.67973 4.1953 9.80476C4.32033 9.92978 4.4899 10 4.66671 10ZM4.66671 12.6667C4.79856 12.6667 4.92745 12.6276 5.03709 12.5543C5.14672 12.4811 5.23217 12.377 5.28263 12.2551C5.33309 12.1333 5.34629 11.9993 5.32056 11.87C5.29484 11.7406 5.23135 11.6219 5.13811 11.5286C5.04488 11.4354 4.92609 11.3719 4.79677 11.3462C4.66745 11.3204 4.5334 11.3336 4.41159 11.3841C4.28977 11.4346 4.18565 11.52 4.11239 11.6296C4.03914 11.7393 4.00004 11.8682 4.00004 12C4.00004 12.1768 4.07028 12.3464 4.1953 12.4714C4.32033 12.5964 4.4899 12.6667 4.66671 12.6667Z" fill="black"/>
</svg>
