<svg width="303" height="134" viewBox="0 0 303 134" fill="none" xmlns="http://www.w3.org/2000/svg">
<path d="M302.037 113.814L300.527 119.214L299.017 105.169L297.16 92.9247L295.304 100.126L293.448 107.327L291.591 95.0832L289.735 82.8391L287.879 90.0404L286.023 97.2417L284.166 84.9976L283.065 77.9764L281.964 90.4006L280.863 102.825L279.762 95.8036L278.66 88.7824L277.559 101.207L276.458 113.631L275.357 106.61L274.256 105.422L273.155 112.013L272.053 118.603L270.952 117.416L269.851 118.173L268.75 124.763L267.649 123.576L266.548 130.166L264.314 125.197L262.08 128.005L259.846 123.035L257.612 123.899L255.378 120.874L253.145 123.683L250.911 118.713L248.677 121.521L247.576 116.372L246.475 119L245.373 114.823L244.272 116.479L243.171 111.329L242.07 113.957L240.969 108.807L239.868 110.464L238.766 106.286L237.665 108.914L236.564 104.737L235.463 114.171L234.362 102.215L233.261 102.899L232.159 90.9436L231.058 99.4056L229.941 97.4963L228.824 92.6701L227.707 91.7331L226.591 86.9069L225.474 87.9144L224.357 80.1714L223.24 88.957L222.123 75.3804L221.006 75.4157L219.889 59.8945L218.772 77.4306L217.655 55.1035L216.538 61.9446L215.422 61.0076L214.305 54.2369L213.188 55.2443L212.071 45.3781L210.954 66.6245L209.837 58.7028L208.72 55.6425L207.603 66.1939L206.486 61.189L205.369 67.8514L204.252 67.7079L203.136 72.4257L202.019 71.3099L200.902 76.0277L199.785 74.9119L198.668 76.7129L197.551 81.4308L196.434 80.3149L195.317 82.116L193.115 82.728L190.912 71.6728L188.71 82.0076L186.508 90.3978L184.305 81.2872L182.103 76.0656L179.901 85.4282L177.698 79.2343L175.465 83.7355L173.231 78.5139L170.997 78.1537L168.763 82.6549L166.529 77.4333L164.295 77.0731L162.062 66.9902L159.828 66.63L158.727 78.5139L157.625 80.6751L156.524 87.6977L155.423 84.9976L154.322 87.1588L153.221 94.1813L152.12 91.4812L151.018 83.9197L149.917 100.665L148.816 97.9648L147.715 100.126L146.614 112.01L145.513 94.7257L144.411 116.332L143.31 108.771L142.209 110.932L141.092 108.951L139.975 103.081L138.858 104.989L137.741 98.1463L136.624 101.027L135.508 94.1841L134.391 97.0643L133.274 90.2219L131.04 91.121L129.923 94.9735L128.806 87.1588L127.689 91.0113L126.572 83.1965L125.455 87.0491L124.339 79.2343L123.237 66.8101L122.136 73.8313L121.035 61.4071L119.934 68.4283L118.833 65.7268L117.731 53.3025L116.63 60.3237L115.529 57.6222L114.428 64.6434L113.327 52.2192L112.226 59.2404L111.124 46.8162L110.023 53.8374L108.922 41.4131L107.821 38.7116L106.72 45.7328L104.486 25.9272L102.252 35.2897L100.018 44.6522L97.7844 34.5693L95.5506 53.6545L93.3168 43.5716L91.083 33.4887L88.8492 23.4058L87.7323 35.4698L86.6154 47.5338L85.4985 40.1524L84.3816 42.4938L83.2646 54.5578L82.1477 47.1764L81.0308 39.795L79.9139 51.859L78.797 54.2003L77.6801 46.8189L76.5632 58.8829L75.4463 61.2242L74.3294 73.2883L73.2125 65.9069L72.0956 68.2482L70.9787 80.3122L68.7763 71.1453L66.574 61.9784L64.3716 72.2569L62.1693 63.09L59.9669 73.3685L57.7646 70.0353L55.5622 76.4247L53.3598 71.1469L51.126 76.9805L48.8922 71.1469L46.6584 75.036L44.4246 65.3132L42.1908 75.036L39.957 84.7587L37.7231 65.3132L35.4893 75.036L34.3882 72.5968L33.287 79.8804L32.1858 67.7186L31.0846 75.0022L29.9835 62.8404L28.8823 50.6786L27.7811 57.9622L26.6799 65.2457L25.5788 53.0839L24.4776 40.9221L23.3764 48.2057L22.2752 55.4893L21.1741 43.3275L20.0729 31.1656L18.9717 38.4492L17.8705 36.0101L16.9424 44.1119L16.0143 32.7683L15.0861 31.1474L14.158 29.5265L13.2298 27.9056L12.3017 36.0074L11.3736 24.6638L10.4454 23.0429L9.51729 11.6992L8.58915 19.801L7.66101 18.1801L6.7329 6.83651L5.80478 14.9383L4.87664 13.3174L3.94851 11.6965L3.02037 0.15044L1.51018 10.0756H3.81516e-06" stroke="#0061FF" stroke-width="2"/>
</svg>
