<svg width="151" height="46" viewBox="0 0 151 46" fill="none" xmlns="http://www.w3.org/2000/svg">
<path opacity="0.5" fill-rule="evenodd" clip-rule="evenodd" d="M0.359683 18.5312L1.86609 17.0288C3.37249 15.5264 6.25976 12.5215 9.27257 13.5231C12.1598 14.5248 15.1726 19.5328 18.0599 21.0353C21.0727 22.5377 23.96 20.5344 26.9728 19.5328C29.8601 18.5312 32.8729 18.5312 35.7602 16.0272C38.773 13.5231 41.6602 8.51506 44.673 8.01425C47.5603 7.51344 50.5731 11.5199 53.5859 13.0223C56.4732 14.5248 59.486 13.5231 62.3733 12.5215C65.3861 11.5199 68.2734 10.5183 71.2862 12.0207C74.1734 13.5231 77.1862 17.5296 80.0735 18.0304C83.0863 18.5312 85.9736 15.5264 88.9864 12.5215C91.8737 9.51667 94.8865 6.51183 97.7738 5.0094C100.787 3.50698 103.799 3.50698 106.687 4.5086C109.699 5.51021 112.587 7.51344 115.6 11.0191C118.487 14.5248 121.5 8.78702 124.387 11.7919C127.4 14.7967 130.287 15.7983 133.3 11.7919C136.187 7.7854 139.2 9.51667 142.087 5.0094C145.1 0.502134 147.987 0.502134 149.494 0.502134H151V45.6942H149.494C147.987 45.6942 145.1 45.6942 142.087 45.6942C139.2 45.6942 136.187 45.6942 133.3 45.6942C130.287 45.6942 127.4 45.6942 124.387 45.6942C121.5 45.6942 118.487 45.6942 115.6 45.6942C112.587 45.6942 109.699 45.6942 106.687 45.6942C103.799 45.6942 100.787 45.6942 97.7738 45.6942C94.8865 45.6942 91.8737 45.6942 88.9864 45.6942C85.9736 45.6942 83.0863 45.6942 80.0735 45.6942C77.1862 45.6942 74.1734 45.6942 71.2862 45.6942C68.2734 45.6942 65.3861 45.6942 62.3733 45.6942C59.486 45.6942 56.4732 45.6942 53.5859 45.6942C50.5731 45.6942 47.5603 45.6942 44.673 45.6942C41.6602 45.6942 38.773 45.6942 35.7602 45.6942C32.8729 45.6942 29.8601 45.6942 26.9728 45.6942C23.96 45.6942 21.0727 45.6942 18.0599 45.6942C15.1726 45.6942 12.1598 45.6942 9.27257 45.6942C6.25976 45.6942 3.37249 45.6942 1.86609 45.6942H0.359683V18.5312Z" fill="#E0ECFF"/>
<path d="M0.359683 19.0607L1.86609 17.5141C3.37249 15.9676 6.25976 12.8745 9.27257 13.9055C12.1598 14.9365 15.1726 20.0917 18.0599 21.6382C21.0727 23.1848 23.96 21.1227 26.9728 20.0917C29.8601 19.0607 32.8729 19.0607 35.7602 16.4831C38.773 13.9055 41.6602 8.75037 44.673 8.23485C47.5603 7.71934 50.5731 11.8435 53.5859 13.39C56.4732 14.9365 59.486 13.9055 62.3733 12.8745C65.3861 11.8435 68.2734 10.8124 71.2862 12.359C74.1734 13.9055 77.1862 18.0296 80.0735 18.5451C83.0863 19.0607 85.9736 15.9676 88.9864 12.8745C91.8737 9.7814 94.8865 6.68831 97.7738 5.14177C100.787 3.59522 103.799 3.59522 106.687 4.62625C109.699 5.65728 112.587 7.71934 115.6 11.3279C118.487 14.9365 121.5 9.03032 124.387 12.1234C127.4 15.2165 130.287 16.2475 133.3 12.1234C136.187 7.99929 139.2 9.7814 142.087 5.14177C145.1 0.502134 147.987 0.502134 149.494 0.502134H151" stroke="#0061FF"/>
</svg>
