<svg width="9" height="6" viewBox="0 0 9 6" fill="none" xmlns="http://www.w3.org/2000/svg">
<path d="M8.56309 0.576804C8.69504 0.444852 8.69504 0.230916 8.56309 0.098964C8.43114 -0.0329877 8.2172 -0.0329877 8.08525 0.098964L8.56309 0.576804ZM5.39584 3.26621L5.20842 3.54735C5.34243 3.63669 5.52087 3.61902 5.63476 3.50513L5.39584 3.26621ZM3.79857 2.20137L3.986 1.92023C3.85198 1.83089 3.67354 1.84856 3.55965 1.96245L3.79857 2.20137ZM-6.12955e-05 5.66212C-6.12781e-05 5.84872 0.151215 6 0.337823 6L3.37878 6C3.56539 6 3.71666 5.84872 3.71666 5.66212C3.71666 5.47551 3.56539 5.32423 3.37878 5.32423L0.675707 5.32423L0.675706 2.62116C0.675706 2.43455 0.52443 2.28328 0.337822 2.28328C0.151214 2.28328 -6.15967e-05 2.43455 -6.15793e-05 2.62116L-6.12955e-05 5.66212ZM8.08525 0.098964L5.15692 3.02729L5.63476 3.50513L8.56309 0.576804L8.08525 0.098964ZM5.58327 2.98508L3.986 1.92023L3.61115 2.4825L5.20842 3.54735L5.58327 2.98508ZM3.55965 1.96245L0.0989027 5.4232L0.576743 5.90104L4.03749 2.44029L3.55965 1.96245Z" fill="#E24949"/>
</svg>
