<svg width="20" height="20" viewBox="0 0 20 20" fill="none" xmlns="http://www.w3.org/2000/svg">
<path d="M10.0001 15.8333C10.1649 15.8333 10.326 15.7845 10.4631 15.6929C10.6001 15.6013 10.7069 15.4712 10.77 15.3189C10.8331 15.1666 10.8496 14.9991 10.8174 14.8374C10.7852 14.6758 10.7059 14.5273 10.5893 14.4107C10.4728 14.2942 10.3243 14.2148 10.1627 14.1827C10.001 14.1505 9.83345 14.167 9.68118 14.2301C9.52891 14.2932 9.39876 14.4 9.30719 14.537C9.21562 14.6741 9.16675 14.8352 9.16675 15C9.16675 15.221 9.25455 15.433 9.41083 15.5892C9.56711 15.7455 9.77907 15.8333 10.0001 15.8333ZM14.1667 15.8333C14.3316 15.8333 14.4927 15.7845 14.6297 15.6929C14.7668 15.6013 14.8736 15.4712 14.9366 15.3189C14.9997 15.1666 15.0162 14.9991 14.9841 14.8374C14.9519 14.6758 14.8725 14.5273 14.756 14.4107C14.6395 14.2942 14.491 14.2148 14.3293 14.1827C14.1677 14.1505 14.0001 14.167 13.8478 14.2301C13.6956 14.2932 13.5654 14.4 13.4739 14.537C13.3823 14.6741 13.3334 14.8352 13.3334 15C13.3334 15.221 13.4212 15.433 13.5775 15.5892C13.7338 15.7455 13.9457 15.8333 14.1667 15.8333ZM14.1667 12.5C14.3316 12.5 14.4927 12.4511 14.6297 12.3596C14.7668 12.268 14.8736 12.1378 14.9366 11.9856C14.9997 11.8333 15.0162 11.6657 14.9841 11.5041C14.9519 11.3424 14.8725 11.1939 14.756 11.0774C14.6395 10.9609 14.491 10.8815 14.3293 10.8493C14.1677 10.8172 14.0001 10.8337 13.8478 10.8968C13.6956 10.9598 13.5654 11.0666 13.4739 11.2037C13.3823 11.3407 13.3334 11.5018 13.3334 11.6667C13.3334 11.8877 13.4212 12.0996 13.5775 12.2559C13.7338 12.4122 13.9457 12.5 14.1667 12.5ZM10.0001 12.5C10.1649 12.5 10.326 12.4511 10.4631 12.3596C10.6001 12.268 10.7069 12.1378 10.77 11.9856C10.8331 11.8333 10.8496 11.6657 10.8174 11.5041C10.7852 11.3424 10.7059 11.1939 10.5893 11.0774C10.4728 10.9609 10.3243 10.8815 10.1627 10.8493C10.001 10.8172 9.83345 10.8337 9.68118 10.8968C9.52891 10.9598 9.39876 11.0666 9.30719 11.2037C9.21562 11.3407 9.16675 11.5018 9.16675 11.6667C9.16675 11.8877 9.25455 12.0996 9.41083 12.2559C9.56711 12.4122 9.77907 12.5 10.0001 12.5ZM15.8334 2.49999H15.0001V1.66666C15.0001 1.44565 14.9123 1.23369 14.756 1.07741C14.5997 0.921126 14.3878 0.833328 14.1667 0.833328C13.9457 0.833328 13.7338 0.921126 13.5775 1.07741C13.4212 1.23369 13.3334 1.44565 13.3334 1.66666V2.49999L6.66675 2.49999V1.66666C6.66675 1.44565 6.57895 1.23369 6.42267 1.07741C6.26639 0.921126 6.05443 0.833328 5.83342 0.833328C5.6124 0.833328 5.40044 0.921126 5.24416 1.07741C5.08788 1.23369 5.00008 1.44565 5.00008 1.66666V2.49999H4.16675C3.50371 2.49999 2.86782 2.76339 2.39898 3.23223C1.93014 3.70107 1.66675 4.33695 1.66675 4.99999L1.66675 16.6667C1.66675 17.3297 1.93014 17.9656 2.39898 18.4344C2.86782 18.9033 3.50371 19.1667 4.16675 19.1667H15.8334C16.4965 19.1667 17.1323 18.9033 17.6012 18.4344C18.07 17.9656 18.3334 17.3297 18.3334 16.6667V4.99999C18.3334 4.33695 18.07 3.70107 17.6012 3.23223C17.1323 2.76339 16.4965 2.49999 15.8334 2.49999ZM16.6667 16.6667C16.6667 16.8877 16.579 17.0996 16.4227 17.2559C16.2664 17.4122 16.0544 17.5 15.8334 17.5H4.16675C3.94573 17.5 3.73377 17.4122 3.57749 17.2559C3.42121 17.0996 3.33341 16.8877 3.33341 16.6667L3.33341 9.16666H16.6667V16.6667ZM16.6667 7.49999L3.33341 7.49999L3.33341 4.99999C3.33341 4.77898 3.42121 4.56702 3.57749 4.41074C3.73377 4.25446 3.94573 4.16666 4.16675 4.16666H5.00008V4.99999C5.00008 5.22101 5.08788 5.43297 5.24416 5.58925C5.40044 5.74553 5.6124 5.83333 5.83342 5.83333C6.05443 5.83333 6.26639 5.74553 6.42267 5.58925C6.57895 5.43297 6.66675 5.22101 6.66675 4.99999V4.16666H13.3334V4.99999C13.3334 5.22101 13.4212 5.43297 13.5775 5.58925C13.7338 5.74553 13.9457 5.83333 14.1667 5.83333C14.3878 5.83333 14.5997 5.74553 14.756 5.58925C14.9123 5.43297 15.0001 5.22101 15.0001 4.99999V4.16666H15.8334C16.0544 4.16666 16.2664 4.25446 16.4227 4.41074C16.579 4.56702 16.6667 4.77898 16.6667 4.99999V7.49999ZM5.83342 12.5C5.99823 12.5 6.15935 12.4511 6.29639 12.3596C6.43343 12.268 6.54024 12.1378 6.60331 11.9856C6.66639 11.8333 6.68289 11.6657 6.65074 11.5041C6.61858 11.3424 6.53921 11.1939 6.42267 11.0774C6.30613 10.9609 6.15764 10.8815 5.99599 10.8493C5.83434 10.8172 5.66678 10.8337 5.51451 10.8968C5.36224 10.9598 5.23209 11.0666 5.14052 11.2037C5.04896 11.3407 5.00008 11.5018 5.00008 11.6667C5.00008 11.8877 5.08788 12.0996 5.24416 12.2559C5.40044 12.4122 5.6124 12.5 5.83342 12.5ZM5.83342 15.8333C5.99823 15.8333 6.15935 15.7845 6.29639 15.6929C6.43343 15.6013 6.54024 15.4712 6.60331 15.3189C6.66639 15.1666 6.68289 14.9991 6.65074 14.8374C6.61858 14.6758 6.53921 14.5273 6.42267 14.4107C6.30613 14.2942 6.15764 14.2148 5.99599 14.1827C5.83434 14.1505 5.66678 14.167 5.51451 14.2301C5.36224 14.2932 5.23209 14.4 5.14052 14.537C5.04896 14.6741 5.00008 14.8352 5.00008 15C5.00008 15.221 5.08788 15.433 5.24416 15.5892C5.40044 15.7455 5.6124 15.8333 5.83342 15.8333Z" fill="#75839D"/>
</svg>
