<svg width="121" height="126" viewBox="0 0 121 126" fill="none" xmlns="http://www.w3.org/2000/svg">
<g opacity="0.7" filter="url(#filter0_d_1612_2680)">
<path fill-rule="evenodd" clip-rule="evenodd" d="M104.997 45C104.999 44.8335 105 44.6669 105 44.5C105 19.9233 85.0767 0 60.5 0C35.9233 0 16 19.9233 16 44.5C16 44.6669 16.0009 44.8335 16.0028 45H6C2.68629 45 0 47.6863 0 51V120C0 123.314 2.68629 126 6 126H115C118.314 126 121 123.314 121 120V51C121 47.6863 118.314 45 115 45H104.997Z" fill="white"/>
</g>
<defs>
<filter id="filter0_d_1612_2680" x="-10" y="-10" width="141" height="146" filterUnits="userSpaceOnUse" color-interpolation-filters="sRGB">
<feFlood flood-opacity="0" result="BackgroundImageFix"/>
<feColorMatrix in="SourceAlpha" type="matrix" values="0 0 0 0 0 0 0 0 0 0 0 0 0 0 0 0 0 0 127 0" result="hardAlpha"/>
<feOffset/>
<feGaussianBlur stdDeviation="5"/>
<feComposite in2="hardAlpha" operator="out"/>
<feColorMatrix type="matrix" values="0 0 0 0 0.333333 0 0 0 0 0.333333 0 0 0 0 0.333333 0 0 0 0.15 0"/>
<feBlend mode="normal" in2="BackgroundImageFix" result="effect1_dropShadow_1612_2680"/>
<feBlend mode="normal" in="SourceGraphic" in2="effect1_dropShadow_1612_2680" result="shape"/>
</filter>
</defs>
</svg>
