<svg width="151" height="46" viewBox="0 0 151 46" fill="none" xmlns="http://www.w3.org/2000/svg">
<path opacity="0.5" fill-rule="evenodd" clip-rule="evenodd" d="M150.64 18.5312L149.134 17.0288C147.628 15.5264 144.74 12.5215 141.727 13.5231C138.84 14.5248 135.827 19.5328 132.94 21.0353C129.927 22.5377 127.04 20.5344 124.027 19.5328C121.14 18.5312 118.127 18.5312 115.24 16.0272C112.227 13.5231 109.34 8.51506 106.327 8.01425C103.44 7.51344 100.427 11.5199 97.4141 13.0223C94.5268 14.5248 91.514 13.5231 88.6267 12.5215C85.6139 11.5199 82.7266 10.5183 79.7138 12.0207C76.8266 13.5231 73.8138 17.5296 70.9265 18.0304C67.9137 18.5312 65.0264 15.5264 62.0136 12.5215C59.1263 9.51667 56.1135 6.51183 53.2262 5.0094C50.2134 3.50698 47.2006 3.50698 44.3134 4.5086C41.3006 5.51021 38.4133 7.51344 35.4005 11.0191C32.5132 14.5248 29.5004 8.78702 26.6131 11.7919C23.6003 14.7967 20.713 15.7983 17.7002 11.7919C14.813 7.7854 11.8002 9.51667 8.91289 5.0094C5.90008 0.502134 3.01281 0.502134 1.5064 0.502134H0V45.6942H1.5064C3.01281 45.6942 5.90008 45.6942 8.91289 45.6942C11.8002 45.6942 14.813 45.6942 17.7002 45.6942C20.713 45.6942 23.6003 45.6942 26.6131 45.6942C29.5004 45.6942 32.5132 45.6942 35.4005 45.6942C38.4133 45.6942 41.3006 45.6942 44.3134 45.6942C47.2006 45.6942 50.2134 45.6942 53.2262 45.6942C56.1135 45.6942 59.1263 45.6942 62.0136 45.6942C65.0264 45.6942 67.9137 45.6942 70.9265 45.6942C73.8138 45.6942 76.8266 45.6942 79.7138 45.6942C82.7266 45.6942 85.6139 45.6942 88.6267 45.6942C91.514 45.6942 94.5268 45.6942 97.4141 45.6942C100.427 45.6942 103.44 45.6942 106.327 45.6942C109.34 45.6942 112.227 45.6942 115.24 45.6942C118.127 45.6942 121.14 45.6942 124.027 45.6942C127.04 45.6942 129.927 45.6942 132.94 45.6942C135.827 45.6942 138.84 45.6942 141.727 45.6942C144.74 45.6942 147.628 45.6942 149.134 45.6942H150.64V18.5312Z" fill="#E0ECFF"/>
<path d="M150.64 19.0607L149.134 17.5141C147.628 15.9676 144.74 12.8745 141.727 13.9055C138.84 14.9365 135.827 20.0917 132.94 21.6382C129.927 23.1848 127.04 21.1227 124.027 20.0917C121.14 19.0607 118.127 19.0607 115.24 16.4831C112.227 13.9055 109.34 8.75037 106.327 8.23485C103.44 7.71934 100.427 11.8435 97.4141 13.39C94.5268 14.9365 91.514 13.9055 88.6267 12.8745C85.6139 11.8435 82.7266 10.8124 79.7138 12.359C76.8266 13.9055 73.8138 18.0296 70.9265 18.5451C67.9137 19.0607 65.0264 15.9676 62.0136 12.8745C59.1263 9.7814 56.1135 6.68831 53.2262 5.14177C50.2134 3.59522 47.2006 3.59522 44.3134 4.62625C41.3006 5.65728 38.4133 7.71934 35.4005 11.3279C32.5132 14.9365 29.5004 9.03032 26.6131 12.1234C23.6003 15.2165 20.713 16.2475 17.7002 12.1234C14.813 7.99929 11.8002 9.7814 8.91288 5.14177C5.90008 0.502134 3.01282 0.502134 1.50641 0.502134H1.16725e-06" stroke="#0061FF"/>
</svg>
