<svg width="85" height="16" viewBox="0 0 85 16" fill="none" xmlns="http://www.w3.org/2000/svg">
<path fill-rule="evenodd" clip-rule="evenodd" d="M0.356286 10.6559L1.20272 9.81839C2.04916 8.98088 3.6715 7.30584 5.36437 7.86418C6.98671 8.42253 8.67959 11.2143 10.3019 12.0518C11.9948 12.8893 13.6171 11.7726 15.31 11.2143C16.9324 10.6559 18.6252 10.6559 20.2476 9.26005C21.9404 7.86418 23.5628 5.07245 25.2557 4.79328C26.878 4.51411 28.5709 6.74749 30.2637 7.58501C31.8861 8.42253 33.579 7.86418 35.2013 7.30584C36.8942 6.74749 38.5165 6.18914 40.2094 7.02666C41.8317 7.86418 43.5246 10.0976 45.1469 10.3767C46.8398 10.6559 48.4621 8.98087 50.155 7.30584C51.7774 5.6308 53.4702 3.95576 55.0926 3.11824C56.7855 2.28072 58.4783 2.28072 60.1007 2.83907C61.7935 3.39742 63.4159 4.51411 65.1088 6.46832C66.7311 8.42253 68.424 5.22406 70.0463 6.89909C71.7392 8.57413 73.3615 9.13248 75.0544 6.89909C76.6767 4.66571 78.3696 5.6308 79.9919 3.11824C81.6848 0.605686 83.3072 0.605686 84.1536 0.605686H85V15.681H84.1536C83.3072 15.681 81.6848 15.681 79.9919 15.681C78.3696 15.681 76.6767 15.681 75.0544 15.681C73.3615 15.681 71.7392 15.681 70.0463 15.681C68.424 15.681 66.7311 15.681 65.1088 15.681C63.4159 15.681 61.7935 15.681 60.1007 15.681C58.4783 15.681 56.7855 15.681 55.0926 15.681C53.4702 15.681 51.7774 15.681 50.155 15.681C48.4621 15.681 46.8398 15.681 45.1469 15.681C43.5246 15.681 41.8317 15.681 40.2094 15.681C38.5165 15.681 36.8942 15.681 35.2013 15.681C33.579 15.681 31.8861 15.681 30.2637 15.681C28.5709 15.681 26.878 15.681 25.2557 15.681C23.5628 15.681 21.9404 15.681 20.2476 15.681C18.6252 15.681 16.9324 15.681 15.31 15.681C13.6171 15.681 11.9948 15.681 10.3019 15.681C8.67959 15.681 6.98671 15.681 5.36437 15.681C3.6715 15.681 2.04916 15.681 1.20272 15.681H0.356286V10.6559Z" fill="#E0ECFF"/>
<path d="M0.356286 10.5847L1.20272 9.7448C2.04916 8.9049 3.6715 7.22509 5.36437 7.78502C6.98671 8.34496 8.67959 11.1446 10.3019 11.9846C11.9948 12.8245 13.6171 11.7046 15.31 11.1446C16.9324 10.5847 18.6252 10.5847 20.2476 9.18487C21.9404 7.78502 23.5628 4.98534 25.2557 4.70537C26.878 4.4254 28.5709 6.66515 30.2637 7.50506C31.8861 8.34496 33.579 7.78502 35.2013 7.22509C36.8942 6.66515 38.5165 6.10521 40.2094 6.94512C41.8317 7.78502 43.5246 10.0248 45.1469 10.3047C46.8398 10.5847 48.4622 8.9049 50.155 7.22509C51.7774 5.54527 53.4702 3.86546 55.0926 3.02556C56.7855 2.18565 58.4783 2.18565 60.1007 2.74559C61.7935 3.30553 63.4159 4.4254 65.1088 6.38518C66.7311 8.34496 68.424 5.13737 70.0463 6.81718C71.7392 8.497 73.3615 9.05693 75.0544 6.81718C76.6767 4.57744 78.3696 5.54527 79.992 3.02556C81.6848 0.505839 83.3072 0.505839 84.1536 0.505839H85" stroke="#0061FF"/>
</svg>
