<svg width="20" height="20" viewBox="0 0 20 20" fill="none" xmlns="http://www.w3.org/2000/svg">
<g clip-path="url(#clip0_1811_3291)">
<path d="M19.7 12.4191C18.3644 17.7763 12.9381 21.0363 7.58031 19.7006C2.22499 18.365 -1.03532 12.9388 0.300619 7.58188C1.63562 2.22406 7.06156 -1.03656 12.4178 0.299066C17.7753 1.63469 21.0353 7.06157 19.6997 12.4191H19.7Z" fill="#F7931A"/>
<path d="M14.4093 8.57531C14.608 7.24469 13.5949 6.52938 12.2096 6.05219L12.6589 4.24969L11.5614 3.97625L11.1239 5.73125C10.8358 5.65938 10.5396 5.59156 10.2452 5.52437L10.6858 3.75781L9.58925 3.48438L9.13957 5.28625C8.90082 5.23188 8.66644 5.17813 8.43894 5.12156L8.44019 5.11594L6.92707 4.73813L6.63519 5.91C6.63519 5.91 7.44925 6.09656 7.43207 6.10812C7.87644 6.21906 7.95707 6.51312 7.94332 6.74625L7.43144 8.79969C7.46207 8.8075 7.50175 8.81875 7.5455 8.83625L7.42988 8.8075L6.71207 11.6841C6.65769 11.8191 6.51988 12.0216 6.20925 11.9447C6.22019 11.9606 5.41175 11.7456 5.41175 11.7456L4.86707 13.0019L6.29519 13.3578C6.56082 13.4244 6.82113 13.4941 7.07707 13.5597L6.623 15.3831L7.71894 15.6566L8.16894 13.8528C8.468 13.9341 8.75863 14.0091 9.043 14.0797L8.59488 15.875L9.69207 16.1484L10.1461 14.3288C12.0171 14.6828 13.4243 14.54 14.0158 12.8481C14.493 11.4856 13.9924 10.6997 13.008 10.1869C13.7249 10.0209 14.2649 9.54938 14.4089 8.57531H14.4093ZM11.9021 12.0906C11.5627 13.4531 9.26894 12.7169 8.52488 12.5319L9.12738 10.1166C9.87113 10.3022 12.2558 10.6697 11.9024 12.0906H11.9021ZM12.2411 8.55562C11.9318 9.795 10.0224 9.16531 9.40269 9.01094L9.94894 6.82031C10.5686 6.97469 12.5636 7.26281 12.2411 8.55562Z" fill="white"/>
</g>
<defs>
<clipPath id="clip0_1811_3291">
<rect width="20" height="20" fill="white"/>
</clipPath>
</defs>
</svg>
